<?xml version="1.0" encoding="utf-8"?>
<svg version="1.1" id="iconos" xmlns="http://www.w3.org/2000/svg" width="200" xmlns:xlink="http://www.w3.org/1999/xlink" x="0px" y="0px"
	 viewBox="0 0 200 58.2" style="enable-background:new 0 0 200 58.2;" xml:space="preserve">
<style type="text/css">
	.st0{fill:#C4C4C4;}
</style>
<path class="st0" d="M86.3,51.2v-3.1l14.3-25.2H86.2v-6.8c3.3,0,17.2,0,20.5,0c0.5,0,2.5-0.1,2.5,2.6c0,1,0,2,0,3L95.2,47h14.3v7.2
	c-6.1,0-14.1,0-20.2,0C86.2,54.3,86.3,52,86.3,51.2"/>
<path class="st0" d="M75.8,54.3V24.7h7.7v29.6L75.8,54.3"/>
<path class="st0" d="M58.3,16.2V4.6H66v11.6h6.8V23H66v20.4c0,1.6,0.4,2.7,1.1,3.2c0.6,0.3,1.7,0.5,3.6,0.5v7.2h-3.1
	c-3.1,0-5.6-1-7.2-2.9c-1.4-1.6-2-3.7-2-6V22.9L58.3,16.2"/>
<path class="st0" d="M152.8,4.7h7.6v49.5h-11.1c-4.5,0-7.7-1.7-9.6-5.2c-0.9-1.7-1.4-4.2-1.4-7.4v-12c0-3.3,0.4-5.8,1.4-7.4
	c1.9-3.5,5.1-5.2,9.6-5.2c1.3,0,2.4,0.1,3.5,0.4V4.7z M152.8,44.2V26.1c-0.4-1.8-1.5-2.7-3.5-2.7c-2.4,0-3.6,1.4-3.6,4.2v15.1
	c0,2.8,1.2,4.2,3.6,4.2C151.2,46.9,152.4,46,152.8,44.2"/>
<path class="st0" d="M134.8,34.4h-15.2v8.9c0,2.5,1.3,3.7,3.8,3.7c2.3,0,3.5-1.3,3.8-3.8h7.6c0,3.3-1,6-3.1,8.2s-4.9,3.3-8.3,3.3
	c-4.7,0-8-1.8-10-5.5c-1-1.8-1.4-4.3-1.4-7.7V29c0-3.4,0.5-6,1.4-7.7c2-3.7,5.3-5.5,10-5.5c3.4,0,6.2,1.1,8.3,3.4s3.1,5.1,3.1,8.5
	v0.1V34.4z M127,27.7c0-2.9-1.3-4.4-3.8-4.4s-3.8,1.4-3.8,4.4H127"/>
<path class="st0" d="M163.5,54.3V24.7h7.6v29.6L163.5,54.3"/>
<path class="st0" d="M188.1,16.2V4.6h-7.6v11.6h-6.8V23l0,0h6.8v20.3c0,1.6-0.4,2.7-1.1,3.2c-0.6,0.3-1.8,0.5-3.6,0.5v7.2h3.2
	c3.1,0,5.6-1,7.2-2.9c1.4-1.6,2-3.7,2-6V23h2.7v-6.8H188.1"/>
<path class="st0" d="M1.5,40.4l17.9-17.9L1.5,4.6V40.4z"/>
<path class="st0" d="M1.5,54.3h13.9L1.5,40.4V54.3z"/>
<path class="st0" d="M15.4,54.3l17.9-17.9l17.9,17.9C51.2,54.3,15.4,54.3,15.4,54.3z"/>
<path class="st0" d="M51.1,29.4L26.3,4.6h24.8V29.4z"/>
</svg>
